<?xml version="1.0" standalone="no"?>
<!DOCTYPE svg PUBLIC "-//W3C//DTD SVG 20010904//EN"
 "http://www.w3.org/TR/2001/REC-SVG-20010904/DTD/svg10.dtd">
<svg version="1.0" xmlns="http://www.w3.org/2000/svg"
 width="1000.000000pt" height="750.000000pt" viewBox="0 0 1000.000000 750.000000"
 preserveAspectRatio="xMidYMid meet">

<g transform="translate(0.000000,750.000000) scale(0.100000,-0.100000)"
fill="#000000" stroke="none">
<path d="M5075 6487 c-8 -4 -32 -9 -54 -12 -22 -2 -48 -8 -58 -13 -10 -5 -34
-12 -53 -15 -97 -14 -335 -129 -421 -203 -31 -27 -73 -62 -93 -79 -20 -16 -45
-44 -56 -61 -11 -17 -30 -42 -43 -56 -32 -34 -99 -135 -121 -183 -10 -22 -23
-48 -27 -57 -5 -10 -9 -19 -9 -20 0 -2 30 -2 67 -1 38 1 109 3 158 4 l90 2
-70 7 c-38 4 -73 6 -77 3 -4 -2 -5 4 -1 13 4 12 3 15 -5 10 -7 -4 -12 -3 -12
2 0 6 16 10 36 10 39 0 55 9 36 21 -10 6 -10 11 2 21 9 7 13 16 10 21 -3 5 2
12 10 15 9 3 16 12 16 20 0 8 6 14 14 14 7 0 19 7 26 15 14 17 65 21 55 4 -4
-6 2 -5 13 2 24 15 35 46 18 53 -6 3 -1 3 12 0 12 -3 22 -1 22 5 0 13 82 91
96 91 5 0 20 14 33 30 12 17 26 28 31 25 15 -9 51 10 64 35 10 21 18 25 54 22
28 -1 42 2 43 10 0 8 3 7 7 -3 11 -26 92 -113 92 -99 0 7 -19 47 -42 89 -23
42 -35 71 -27 65 8 -7 28 -10 44 -9 17 2 62 7 100 12 39 4 135 7 215 6 80 -2
160 -3 178 -3 17 0 32 -4 32 -9 0 -13 54 -20 68 -9 9 8 12 6 12 -5 0 -9 -4
-18 -9 -21 -9 -6 -61 -111 -61 -124 0 -8 66 63 87 96 9 12 23 22 33 22 23 0
72 -25 69 -36 -1 -5 8 -14 20 -20 12 -6 32 -20 44 -30 47 -40 137 -104 146
-104 5 0 11 -6 14 -14 3 -8 27 -22 54 -32 54 -20 83 -41 83 -61 0 -7 15 -22
33 -33 17 -11 28 -20 24 -20 -4 0 -2 -10 4 -22 12 -22 12 -22 20 -3 7 19 8 19
15 -3 4 -13 17 -28 30 -32 16 -6 22 -15 18 -25 -5 -12 -25 -15 -93 -17 l-86
-2 100 -5 c136 -8 231 -3 216 12 -6 6 -11 17 -11 25 0 48 -217 343 -277 376
-10 5 -37 29 -59 52 -23 23 -62 52 -87 63 -26 12 -66 34 -89 49 -40 26 -186
81 -233 87 -11 2 -58 13 -105 25 -72 18 -107 21 -228 19 -78 -2 -149 -7 -157
-12z m310 -25 c-3 -3 -11 0 -18 7 -9 10 -8 11 6 5 10 -3 15 -9 12 -12z m-305
-4 c-78 -33 -177 -81 -190 -93 -8 -8 -60 -26 -115 -40 -55 -15 -122 -35 -150
-45 -27 -10 -59 -21 -70 -25 -11 -3 -3 5 19 18 21 14 97 44 170 68 72 23 134
47 138 53 5 6 8 7 8 1 0 -6 3 -6 8 1 8 12 159 69 187 71 16 1 15 -1 -5 -9z
m433 -34 c21 -7 50 -20 65 -28 15 -8 71 -28 124 -46 131 -42 232 -86 237 -102
3 -10 1 -10 -10 -2 -19 15 -225 82 -280 90 -24 4 -56 17 -70 29 -14 12 -60 37
-103 56 -75 34 -111 64 -38 33 20 -9 54 -22 75 -30z m-1101 -281 c-22 -27 -50
-66 -63 -88 -63 -111 -89 -162 -89 -176 0 -23 -34 -63 -49 -58 -8 3 3 33 34
94 26 50 51 92 56 93 5 2 9 8 9 14 0 5 9 22 20 38 11 15 16 30 12 34 -4 4 -2
6 3 4 6 -1 30 18 54 45 56 61 64 61 13 0z m1791 -190 c32 -57 57 -111 57 -119
0 -19 -21 -14 -30 7 -58 120 -119 234 -137 255 -39 46 -25 50 15 5 21 -24 64
-90 95 -148z"/>
<path d="M5051 6111 c-30 -4 -56 -12 -59 -19 -2 -7 -9 -18 -16 -25 -17 -18
-76 -112 -76 -122 0 -5 21 22 48 60 26 38 58 75 72 82 19 10 78 13 233 11 175
-3 210 -5 217 -18 5 -9 23 -31 40 -50 34 -38 31 -28 -13 36 -27 41 -29 41
-104 48 -91 7 -267 6 -342 -3z"/>
<path d="M5590 5911 c0 -6 4 -13 10 -16 6 -3 7 1 4 9 -7 18 -14 21 -14 7z"/>
<path d="M4108 5765 c-4 -5 -43 -12 -92 -18 -23 -2 -33 -23 -14 -30 7 -2 5 -3
-4 -2 -10 2 -18 0 -18 -4 0 -4 -26 -14 -57 -21 -32 -7 -65 -15 -73 -17 -13 -4
-13 -4 0 6 8 5 32 13 54 17 25 4 34 9 26 14 -7 5 -22 6 -32 4 -10 -2 -27 -6
-37 -8 -11 -3 -31 -12 -45 -21 -13 -9 -33 -16 -43 -15 -32 4 -36 0 -22 -17 7
-10 9 -15 5 -11 -5 4 -16 2 -24 -5 -13 -9 -14 -9 -8 1 4 7 2 12 -8 12 -8 0
-21 -6 -28 -12 -7 -7 -32 -14 -56 -15 -23 0 -50 -7 -58 -14 -14 -12 -14 -14 3
-21 10 -4 0 -5 -23 -2 -29 4 -51 1 -75 -12 -19 -9 -45 -18 -59 -20 -14 -2 -59
-21 -99 -44 -41 -22 -75 -40 -77 -40 -2 0 -14 -9 -26 -20 -13 -11 -30 -26 -38
-33 -32 -26 -63 -429 -59 -752 5 -281 7 -313 27 -318 10 -3 -16 -5 -56 -6 -52
-1 -84 -7 -112 -21 l-40 -20 0 -233 c0 -127 4 -281 10 -342 5 -60 12 -153 15
-207 9 -133 15 -138 144 -138 89 0 99 -2 119 -23 12 -13 22 -30 22 -38 0 -28
57 -207 96 -300 13 -31 24 -63 24 -70 0 -27 239 -490 282 -547 24 -31 57 -77
73 -102 16 -25 50 -70 75 -100 25 -30 58 -73 73 -95 32 -49 302 -315 376 -370
29 -22 74 -59 99 -81 26 -23 63 -49 82 -59 19 -9 49 -30 65 -46 25 -24 156
-112 295 -200 72 -45 276 -156 306 -166 69 -24 202 15 318 92 28 18 62 38 76
44 14 6 45 27 70 45 25 19 50 35 56 35 6 1 19 10 29 21 10 11 22 20 26 20 10
0 129 80 176 119 18 14 53 42 79 61 25 19 71 58 102 85 78 69 170 145 212 174
19 14 41 34 49 45 8 11 41 49 73 84 32 35 58 70 58 77 0 7 7 18 16 25 19 17
139 177 186 250 65 101 104 165 120 195 37 74 92 171 99 179 5 6 9 17 9 26 0
8 9 33 21 54 21 39 114 275 149 376 10 30 23 82 29 114 15 82 32 106 79 107
24 0 63 15 112 42 69 39 75 45 78 77 1 19 5 41 8 49 3 8 7 63 10 123 3 65 11
118 19 135 18 34 20 270 3 290 -7 9 -9 46 -6 103 5 75 3 92 -11 102 -15 12
-15 11 -1 -6 14 -18 13 -19 -3 -13 -10 4 -346 8 -745 9 -400 1 -694 4 -654 5
66 4 87 13 63 27 -5 4 -12 0 -14 -6 -4 -8 -8 -4 -13 10 -5 17 -9 20 -20 11
-18 -15 -37 -7 -40 17 -3 19 -3 19 12 0 14 -20 18 -16 15 19 -2 17 0 17 8 5
10 -13 11 -13 11 0 1 8 7 2 15 -15 7 -16 14 -25 14 -20 1 6 -5 22 -13 37 -12
23 -12 27 1 32 23 9 30 7 13 -4 -8 -5 -10 -10 -4 -10 18 0 24 12 13 26 -13 16
-4 34 17 34 8 0 13 4 10 9 -3 5 1 12 10 15 12 4 15 2 10 -9 -3 -8 -1 -15 4
-15 5 0 11 12 13 28 2 15 5 -20 5 -78 l2 -105 92 2 c51 1 101 2 111 3 16 0 17
18 17 241 0 168 -3 238 -11 234 -7 -5 -7 -2 0 11 27 51 53 116 47 121 -3 3
-115 5 -248 4 -230 -1 -335 -7 -324 -18 5 -5 -48 -89 -63 -103 -3 -3 -27 -32
-52 -65 -61 -79 -110 -130 -131 -138 -29 -10 -22 7 46 110 35 54 78 124 96
156 l32 57 -37 0 c-30 0 -36 -3 -31 -16 6 -16 -58 -104 -76 -104 -5 0 -20 -11
-34 -24 -20 -18 -42 -25 -102 -31 -100 -10 -239 -10 -277 -1 -22 5 -26 4 -15
-4 12 -7 8 -10 -17 -10 -17 0 -39 7 -48 16 -13 13 -21 14 -39 6 -25 -11 -39
-6 -49 21 -4 9 -11 16 -17 15 -6 -2 -18 10 -28 27 -9 16 -25 36 -34 43 -9 6
-18 22 -20 35 -2 17 -11 23 -36 25 l-32 3 37 -68 c20 -37 65 -110 99 -161 49
-72 60 -94 48 -99 -19 -7 -42 15 -107 97 -29 36 -57 71 -64 78 -7 7 -13 17
-13 22 0 4 -26 35 -58 68 l-57 60 -264 3 c-197 3 -267 6 -277 16 -18 19 -41
97 -55 193 -7 47 -16 90 -19 95 -4 6 -7 58 -6 117 0 60 0 108 -1 108 -16 0
-53 -23 -52 -32 1 -7 -5 -30 -14 -50 -10 -21 -17 -42 -17 -48 0 -13 -49 -34
-210 -89 -116 -40 -161 -61 -132 -61 6 0 46 11 88 25 82 27 130 33 78 11 -35
-15 -43 -25 -49 -58 -3 -12 -10 -25 -17 -30 -10 -6 -10 -8 1 -8 9 0 10 -4 4
-12 -6 -7 -9 -21 -8 -30 2 -9 -4 -19 -12 -22 -11 -5 -12 -10 -4 -20 6 -7 8
-16 4 -20 -6 -6 -11 -34 -16 -96 -1 -14 -6 -28 -11 -31 -10 -8 -12 -232 -2
-247 3 -6 1 -12 -4 -14 -6 -2 -3 -12 7 -24 28 -31 45 -64 33 -64 -17 0 -11
-18 8 -23 12 -3 10 -5 -8 -7 -23 -1 -23 -2 -5 -10 13 -6 15 -9 5 -9 -13 -1
-13 -2 0 -11 13 -9 13 -10 0 -10 -13 0 -13 -1 0 -10 12 -8 13 -11 1 -19 -11
-7 -11 -9 0 -14 9 -3 7 -6 -6 -6 -17 -1 -17 -3 -5 -11 12 -8 10 -10 -10 -11
-23 0 -23 -1 -5 -9 l20 -9 -20 0 c-16 -1 -17 -3 -6 -10 8 -5 16 -17 17 -25 2
-14 -14 -16 -111 -16 -63 0 -116 3 -118 8 -31 51 -26 927 5 958 24 23 366 135
503 165 66 14 88 26 81 45 -2 6 -2 15 2 19 4 4 13 37 19 73 21 114 25 127 35
133 6 4 7 9 0 12 -5 4 -11 4 -14 2z m-298 -105 c0 -5 -10 -10 -22 -9 -22 0
-22 1 -3 9 11 5 21 9 23 9 1 1 2 -3 2 -9z m-265 -90 c-3 -5 -14 -10 -23 -9
-14 0 -13 2 3 9 27 11 27 11 20 0z m-66 -24 c-2 -2 -15 -9 -29 -15 -24 -11
-24 -11 -6 3 16 13 49 24 35 12z m731 -628 c11 -12 20 -27 20 -32 0 -6 -11 2
-25 18 -14 16 -25 31 -25 33 0 8 11 1 30 -19z m-387 6 c31 -6 37 -11 37 -30 0
-21 -5 -24 -40 -24 -36 0 -40 -2 -40 -25 0 -22 4 -25 35 -25 31 0 35 -3 35
-25 0 -22 -4 -25 -35 -25 -31 0 -35 -3 -35 -25 0 -22 4 -25 40 -25 37 0 40 -2
40 -27 0 -28 -1 -28 -70 -30 l-70 -3 -1 38 c-4 106 -4 218 -1 225 4 9 53 9
105 1z m2445 -14 c-11 -18 -28 -27 -28 -16 0 6 30 36 36 36 2 0 -1 -9 -8 -20z
m-2212 -100 c22 -67 31 -106 24 -108 -6 -2 -3 -10 7 -18 17 -12 16 -13 -9 -14
-21 0 -29 6 -34 25 -5 22 -12 25 -49 25 -40 0 -44 -2 -47 -27 -2 -22 -9 -27
-35 -30 -18 -2 -33 0 -33 4 0 4 18 63 41 131 l41 123 30 -3 c29 -3 32 -8 64
-108z m1414 -203 c0 -5 -7 -15 -15 -24 -14 -13 -45 -15 -218 -11 -201 5 -237
10 -237 32 0 8 65 11 235 11 129 0 235 -4 235 -8z m-2132 -264 c-32 -2 -84 -2
-115 0 -32 2 -6 3 57 3 63 0 89 -1 58 -3z m82 -3 c0 -5 -2 -10 -4 -10 -3 0 -8
5 -11 10 -3 6 -1 10 4 10 6 0 11 -4 11 -10z m70 0 c21 -7 19 -8 -12 -6 -21 1
-41 6 -45 9 -9 9 26 7 57 -3z m148 -7 c-21 -2 -57 -2 -80 0 -24 2 -7 4 37 4
44 0 63 -2 43 -4z m115 0 c-13 -2 -35 -2 -50 0 -16 2 -5 4 22 4 28 0 40 -2 28
-4z m-415 -370 l2 -272 73 -3 72 -3 0 -50 0 -50 -105 -3 c-58 -2 -115 0 -127
3 l-23 5 0 326 0 325 53 -3 52 -3 3 -272z m406 267 c22 -5 53 -23 70 -39 l31
-31 5 -208 c6 -243 1 -296 -35 -331 -24 -24 -34 -26 -141 -31 -64 -3 -120 -2
-125 1 -15 9 -18 66 -19 359 0 157 0 286 0 288 0 6 180 0 214 -8z m278 -267
l3 -268 63 -3 62 -3 0 -55 0 -55 -117 3 -118 3 -5 318 c-3 175 -3 321 -1 323
2 2 28 4 58 4 l53 0 2 -267z m530 245 c4 -7 8 -16 8 -20 0 -3 9 -60 20 -125
16 -95 70 -466 70 -479 0 -2 -22 -4 -50 -4 -57 0 -68 12 -71 78 -3 44 -3 44
-69 44 -46 0 -50 -2 -50 -31 0 -16 -3 -43 -6 -60 -6 -30 -9 -31 -55 -31 -26 0
-51 4 -54 10 -8 13 70 614 82 634 9 13 165 -1 175 -16z m368 -4 c51 -20 69
-55 81 -148 12 -92 2 -161 -27 -195 l-22 -27 29 -119 c16 -66 29 -123 29 -128
0 -4 -24 -7 -52 -5 l-53 3 -17 55 c-9 30 -24 81 -33 113 -10 36 -21 57 -30 57
-12 0 -15 -20 -15 -116 l0 -115 -52 3 -53 3 -3 318 -2 317 90 0 c59 0 103 -5
130 -16z m740 -48 l0 -52 -60 4 -60 4 0 -75 0 -76 53 -3 52 -3 0 -50 0 -50
-53 0 -52 0 0 -77 0 -78 65 0 65 0 0 -54 c0 -34 -5 -56 -13 -59 -24 -9 -185
-7 -212 3 l-27 10 4 284 c1 157 6 288 10 292 12 11 205 44 221 36 4 -2 7 -27
7 -56z m172 45 c6 -6 83 -248 90 -286 3 -11 4 41 3 115 -2 175 0 184 52 188
25 2 44 -2 52 -11 8 -11 11 -96 9 -318 l-3 -304 -37 -3 c-70 -6 -71 -4 -162
303 -14 49 -15 46 -15 -125 l-1 -176 -36 -2 c-79 -6 -74 -28 -74 317 0 169 2
310 5 313 7 7 108 -2 117 -11z m523 -46 l0 -60 -37 3 -38 4 -2 -259 -3 -258
-43 -3 c-39 -3 -73 10 -70 26 0 4 0 116 -1 250 l-1 242 -48 0 -49 0 -2 51 c-1
27 1 55 5 60 3 6 64 8 147 7 l142 -3 0 -60z m149 59 c14 -5 16 -42 16 -308 0
-165 -4 -306 -8 -311 -4 -6 -23 -10 -42 -9 -19 2 -41 3 -47 3 -10 1 -13 63
-13 277 0 217 -3 274 -12 268 -10 -6 -10 -5 -1 7 10 12 10 18 0 29 -10 10 -9
11 2 5 11 -6 13 -4 8 9 -4 10 -5 22 -1 27 6 10 74 12 98 3z m173 -2 c6 -4 28
-66 48 -137 21 -72 39 -131 40 -133 2 -2 1 54 -2 125 -6 148 -3 156 69 151
l43 -3 3 -305 c1 -168 1 -309 -2 -315 -2 -5 -25 -9 -52 -7 l-49 4 -33 106
c-19 59 -40 130 -47 157 -13 48 -13 43 -14 -106 -1 -86 -3 -158 -5 -160 -2 -2
-27 -2 -55 -1 l-51 4 0 275 c0 180 -3 272 -10 268 -5 -3 -10 1 -10 9 0 9 6 16
13 17 10 0 10 2 0 6 -16 6 -17 25 -1 41 13 13 96 16 115 4z m479 0 c11 -7 33
-143 74 -461 11 -84 20 -155 20 -157 0 -2 -22 -4 -50 -4 -49 0 -49 0 -55 38
-14 86 -11 82 -64 82 l-48 0 -7 -60 -7 -60 -54 0 -55 0 5 58 c2 31 5 57 6 57
1 0 3 20 5 45 2 25 5 65 8 90 3 25 6 52 7 60 0 8 5 40 9 70 5 30 14 91 20 135
17 123 10 115 98 115 42 0 82 -4 88 -8z m-1828 -35 c24 -25 46 -110 37 -145
-5 -21 -11 -23 -53 -20 -44 3 -47 5 -50 33 -6 68 -10 75 -46 75 -22 0 -36 -6
-40 -16 -3 -9 -6 -98 -6 -199 0 -101 3 -190 6 -199 3 -9 17 -16 29 -16 38 0
55 26 55 81 0 49 -2 52 -45 52 -5 0 -10 24 -10 54 l0 53 83 0 84 0 -4 -141 -3
-141 -32 -28 c-36 -33 -99 -46 -167 -36 -47 7 -82 33 -97 73 -5 13 -9 122 -9
241 0 187 2 222 18 252 l17 35 102 -1 c57 0 97 3 90 8 -9 6 -8 8 4 8 8 0 25
-10 37 -23z m1229 -99 c-3 -7 -5 -2 -5 12 0 14 2 19 5 13 2 -7 2 -19 0 -25z
m0 -80 c-2 -13 -4 -3 -4 22 0 25 2 35 4 23 2 -13 2 -33 0 -45z m323 -603 c0
-33 -54 -216 -97 -330 -147 -388 -356 -710 -653 -1006 -242 -241 -557 -471
-836 -612 l-51 -26 -109 60 c-128 72 -307 188 -416 270 -86 66 -114 78 -53 22
50 -45 31 -33 -65 42 -165 129 -436 400 -528 529 -54 75 -30 53 48 -44 125
-158 487 -506 506 -488 2 3 -31 34 -73 69 -109 88 -344 326 -434 439 -162 203
-297 426 -391 646 -35 83 -55 119 -61 111 -6 -8 -7 -6 -3 6 3 10 -13 79 -35
153 -23 74 -40 136 -38 139 7 7 115 8 126 2 6 -4 28 -60 48 -125 54 -174 134
-372 151 -372 3 0 3 3 1 8 -3 4 34 7 81 8 48 1 125 2 172 4 l85 3 2 -277 2
-277 81 -89 c45 -49 118 -122 163 -162 45 -39 65 -54 45 -32 l-38 40 0 397 0
397 23 4 c19 4 182 3 260 -2 l27 -2 0 -530 0 -530 82 -55 c45 -30 84 -53 86
-50 2 2 -3 14 -12 26 -9 14 -13 32 -10 46 4 16 0 31 -12 44 -15 17 -16 24 -6
39 7 11 12 36 12 57 0 70 23 18 28 -64 5 -68 7 -73 13 -43 8 34 -5 127 -21
159 -5 9 -11 24 -14 34 -3 10 -10 16 -15 12 -17 -10 -20 11 -11 75 6 42 6 68
-1 76 -7 9 -6 26 2 56 7 24 13 45 14 48 15 62 15 71 -4 109 -25 48 -26 67 -6
115 9 20 17 58 19 84 2 26 13 66 25 90 16 32 19 47 11 61 -17 33 -12 47 39
100 l49 51 17 -26 17 -26 23 22 c27 26 56 21 95 -15 22 -20 102 -59 164 -79
14 -5 17 -12 12 -34 -14 -56 -12 -67 13 -70 43 -6 107 8 130 29 12 11 29 19
39 17 25 -5 18 -57 -9 -77 -72 -52 -127 -133 -138 -200 -5 -29 -13 -57 -19
-63 -8 -8 -6 -19 8 -39 11 -15 18 -34 14 -42 -3 -10 3 -17 20 -21 24 -6 38
-36 17 -36 -5 0 -14 -13 -21 -29 -9 -23 -24 -33 -76 -50 -35 -11 -76 -21 -90
-21 -24 0 -26 -2 -20 -34 6 -29 3 -36 -20 -50 -21 -14 -31 -15 -56 -7 -17 6
-33 9 -36 7 -2 -3 2 -21 9 -41 13 -34 12 -40 -20 -99 l-34 -62 23 -31 c25 -34
21 -54 -10 -46 -15 4 -19 2 -14 -10 3 -8 1 -24 -5 -35 -8 -15 -7 -23 5 -33 10
-8 14 -22 10 -40 -5 -25 0 -31 52 -59 l57 -32 55 29 c73 37 290 173 340 213
l40 32 0 529 0 529 78 1 c42 0 106 0 141 -1 44 -1 67 3 72 12 5 7 9 -175 9
-405 l0 -418 104 108 c158 163 147 142 150 290 2 71 4 194 5 275 l1 147 133 0
c72 0 147 5 165 10 31 9 33 9 27 -12 -4 -12 4 -4 17 18 33 55 102 232 133 340
14 49 30 94 36 100 8 8 59 22 122 34 4 0 7 -6 7 -14z m-912 -107 c16 -16 15
-28 -2 -28 -17 0 -38 24 -29 33 9 10 17 9 31 -5z m-858 -6 c0 -14 -24 -32 -42
-32 -16 0 -17 3 -8 20 10 19 50 29 50 12z m548 -44 c19 -19 14 -28 -18 -28
-20 0 -30 -5 -30 -15 0 -9 9 -15 25 -15 18 0 25 -5 25 -19 0 -15 -6 -19 -24
-18 -36 3 -36 -17 -1 -23 18 -3 31 -12 33 -23 3 -14 -4 -17 -47 -17 l-49 0 -4
81 c-2 44 -1 83 1 85 10 9 78 3 89 -8z m192 -8 c0 -15 -7 -20 -25 -20 -16 0
-25 -6 -25 -15 0 -8 9 -15 20 -15 29 0 27 -38 -2 -42 -19 -2 -22 -8 -20 -30 3
-22 -1 -28 -17 -28 -18 0 -20 8 -23 81 -2 44 -1 83 1 85 2 2 24 4 48 4 36 0
43 -3 43 -20z m72 -42 c3 -55 5 -63 23 -63 18 0 20 8 23 63 3 53 6 63 20 60
18 -4 26 -56 17 -114 -6 -36 -42 -58 -80 -48 -29 7 -34 20 -35 94 -2 71 -2 70
15 70 10 0 15 -16 17 -62z m228 42 c0 -13 -7 -20 -20 -20 -18 0 -20 -7 -20
-66 0 -57 -2 -65 -17 -62 -15 3 -19 16 -21 66 -2 44 -7 62 -16 62 -15 0 -28
24 -19 34 4 3 30 6 60 6 46 0 53 -2 53 -20z m123 3 c10 -12 15 -38 16 -76 0
-53 -2 -59 -25 -67 -14 -6 -38 -10 -54 -10 l-28 0 -4 81 c-2 44 -1 83 1 85 12
12 80 2 94 -13z m155 1 c20 -14 23 -23 20 -72 -3 -51 -6 -58 -30 -70 -23 -11
-33 -11 -55 0 -25 12 -28 19 -31 73 -3 47 0 62 14 72 24 17 55 16 82 -3z m92
-49 l0 -65 31 0 c24 0 30 -4 27 -17 -2 -13 -15 -19 -46 -21 -47 -4 -44 -11
-44 108 1 66 -1 60 17 60 12 0 15 -14 15 -65z m-2502 33 c3 -14 -3 -18 -27
-18 -21 0 -31 -5 -31 -15 0 -9 9 -15 25 -15 18 0 25 -5 25 -20 0 -15 -7 -20
-25 -20 -21 0 -25 -5 -25 -30 0 -23 -5 -30 -19 -30 -17 0 -20 9 -23 81 -2 44
-1 83 2 85 2 3 25 4 50 2 33 -2 46 -7 48 -20z m132 2 c0 -16 -7 -20 -30 -20
-20 0 -30 -5 -30 -15 0 -10 10 -15 30 -15 20 0 30 -5 30 -15 0 -10 -10 -15
-30 -15 -20 0 -30 -5 -30 -15 0 -10 10 -15 30 -15 24 0 30 -4 30 -21 0 -18 -5
-20 -47 -17 l-48 3 -5 83 -5 82 53 0 c45 0 52 -3 52 -20z m140 0 c14 -14 20
-33 20 -65 0 -59 -25 -85 -80 -85 l-40 0 0 69 c0 38 -3 76 -6 85 -10 26 80 22
106 -4z m158 -2 c3 -14 -3 -18 -27 -18 -36 0 -42 -17 -9 -22 34 -5 37 -38 4
-38 -36 0 -34 -28 1 -32 17 -2 29 -10 31 -20 3 -15 -4 -18 -47 -18 l-51 0 0
69 c0 38 -3 77 -6 86 -6 14 1 16 47 13 42 -2 55 -7 57 -20z m119 14 c24 -15
33 -58 17 -81 -11 -15 -12 -26 -4 -40 14 -28 13 -41 -6 -41 -8 0 -20 14 -25
30 -6 17 -15 30 -20 30 -5 0 -9 -13 -9 -30 0 -20 -5 -30 -15 -30 -20 0 -23 10
-27 98 l-4 72 41 0 c22 0 45 -4 52 -8z m175 -72 c15 -41 27 -78 27 -82 2 -17
-29 -7 -39 12 -14 27 -54 26 -72 -2 -18 -27 -42 -16 -32 15 3 12 15 48 26 80
18 48 25 57 42 55 16 -2 27 -20 48 -78z m152 61 c22 -25 13 -45 -14 -31 -37
20 -50 13 -50 -29 0 -42 14 -61 33 -42 11 11 47 15 47 5 0 -3 -5 -14 -10 -25
-8 -14 -21 -19 -51 -19 -33 0 -41 4 -49 26 -17 43 -12 112 8 123 28 17 67 13
86 -8z m86 -61 c0 -72 -2 -80 -19 -80 -17 0 -20 9 -23 80 -3 77 -2 80 20 80
21 0 22 -4 22 -80z m150 60 c25 -25 28 -101 4 -124 -18 -19 -85 -21 -102 -4
-16 16 -16 120 0 136 19 19 76 14 98 -8z m123 -35 l28 -50 -4 53 c-4 45 -2 52
14 52 17 0 19 -9 19 -80 0 -73 -2 -80 -20 -80 -13 0 -27 15 -44 48 l-25 47 -1
-48 c0 -40 -3 -48 -17 -45 -14 3 -17 16 -18 81 0 72 1 78 20 75 12 -2 31 -23
48 -53z m259 38 c12 -11 18 -30 18 -61 0 -59 -21 -82 -72 -82 -21 0 -38 1 -38
3 -1 1 -3 37 -7 80 l-6 77 43 0 c26 0 51 -7 62 -17z m-1808 -229 c3 -8 2 -12
-4 -9 -6 3 -10 10 -10 16 0 14 7 11 14 -7z m46 -109 c0 -5 -5 -3 -10 5 -5 8
-10 20 -10 25 0 6 5 3 10 -5 5 -8 10 -19 10 -25z m38 -80 c-3 -3 -9 2 -12 12
-6 14 -5 15 5 6 7 -7 10 -15 7 -18z m42 -75 c11 -22 19 -40 16 -40 -4 0 -46
68 -46 76 0 13 12 -1 30 -36z m123 -202 c47 -71 82 -128 79 -128 -7 0 -106
147 -151 224 -40 68 -18 38 72 -96z m999 -564 c-2 -19 -8 -34 -13 -34 -5 0 -6
13 -3 29 4 17 1 32 -5 36 -9 5 -9 11 1 22 11 13 13 13 18 -2 3 -9 4 -32 2 -51z
m-142 -300 c0 -7 -88 55 -96 67 -3 6 17 -6 45 -26 28 -20 51 -39 51 -41z m565
56 c12 -19 -16 -40 -52 -40 -30 0 -33 2 -23 19 5 11 20 22 32 24 13 2 26 5 30
6 4 0 10 -4 13 -9z m-505 -97 c0 -7 -39 17 -46 28 -3 6 5 3 20 -6 14 -10 26
-19 26 -22z m90 -60 c0 -7 -61 31 -73 46 -7 8 7 2 31 -14 23 -15 42 -30 42
-32z m50 -29 c0 -2 -9 0 -20 6 -11 6 -20 13 -20 16 0 2 9 0 20 -6 11 -6 20
-13 20 -16z m115 -67 c16 -15 -68 29 -90 48 -11 9 3 4 30 -11 28 -15 55 -32
60 -37z m104 -53 c14 -12 -19 -1 -35 12 -18 14 -18 14 6 3 14 -6 27 -13 29
-15z"/>
<path d="M3982 4809 c-7 -27 -5 -35 7 -40 25 -10 30 -1 21 32 -13 45 -18 46
-28 8z"/>
<path d="M3644 4104 c3 -9 6 -105 6 -215 l0 -199 29 0 c55 0 61 23 61 225 0
127 -4 185 -12 193 -7 7 -30 12 -51 12 -32 0 -38 -3 -33 -16z"/>
<path d="M4452 3970 c-8 -63 -16 -125 -19 -137 -5 -21 -2 -23 34 -23 l39 0
-17 114 c-10 63 -19 125 -21 138 -2 13 -9 -29 -16 -92z"/>
<path d="M4808 4115 c-1 -2 -2 -46 0 -99 l3 -96 28 0 c15 0 32 5 39 12 17 17
16 167 0 173 -21 7 -66 14 -70 10z"/>
<path d="M7077 4040 c-5 -26 -27 -199 -27 -219 0 -6 16 -11 35 -11 19 0 35 5
35 10 0 6 -4 10 -8 10 -5 0 -7 12 -5 28 5 40 -23 213 -30 182z"/>
<path d="M5180 2506 c0 -2 7 -7 16 -10 8 -3 12 -2 9 4 -6 10 -25 14 -25 6z"/>
<path d="M4150 2486 c0 -2 8 -10 18 -17 15 -13 16 -12 3 4 -13 16 -21 21 -21
13z"/>
<path d="M5160 2475 c0 -8 5 -17 10 -20 6 -3 10 -1 10 5 0 7 7 9 16 6 8 -3 13
-2 10 3 -10 16 -46 20 -46 6z"/>
<path d="M5143 2435 c-16 -13 -15 -14 12 -12 26 2 30 -1 28 -23 -2 -24 -2 -24
8 3 11 29 24 35 32 15 4 -10 6 -10 6 -1 2 27 -57 39 -86 18z"/>
<path d="M4590 2026 c0 -2 8 -10 18 -17 15 -13 16 -12 3 4 -13 16 -21 21 -21
13z"/>
<path d="M4650 1976 c0 -2 8 -10 18 -17 15 -13 16 -12 3 4 -13 16 -21 21 -21
13z"/>
<path d="M4690 1946 c0 -2 8 -10 18 -17 15 -13 16 -12 3 4 -13 16 -21 21 -21
13z"/>
<path d="M5779 1933 c-13 -16 -12 -17 4 -4 9 7 17 15 17 17 0 8 -8 3 -21 -13z"/>
<path d="M6220 3195 c0 -10 7 -15 18 -13 21 4 19 22 -2 26 -10 2 -16 -3 -16
-13z"/>
<path d="M6217 3135 c-5 -11 0 -15 19 -15 16 0 24 5 22 13 -7 18 -35 20 -41 2z"/>
<path d="M6364 3196 c-3 -8 -4 -27 -2 -43 2 -20 8 -28 23 -28 16 0 21 8 23 43
3 37 1 42 -18 42 -11 0 -23 -6 -26 -14z"/>
<path d="M4230 3155 c0 -39 3 -46 18 -43 13 2 17 13 17 43 0 30 -4 41 -17 43
-15 3 -18 -4 -18 -43z"/>
<path d="M4520 3180 c0 -22 1 -23 24 -14 23 9 20 34 -4 34 -13 0 -20 -7 -20
-20z"/>
<path d="M4686 3165 c-9 -23 -8 -25 9 -25 17 0 19 9 6 28 -7 11 -10 10 -15 -3z"/>
<path d="M5057 3193 c-3 -5 -2 -23 0 -40 4 -27 10 -33 29 -33 21 0 24 5 24 40
0 36 -3 40 -24 40 -14 0 -27 -3 -29 -7z"/>
<path d="M5450 3160 c0 -33 3 -40 20 -40 17 0 20 7 20 40 0 33 -3 40 -20 40
-17 0 -20 -7 -20 -40z"/>
<path d="M6380 5682 c0 -4 7 -35 16 -67 8 -33 14 -75 12 -94 l-3 -33 160 -53
c197 -64 320 -112 333 -128 24 -30 46 -331 47 -649 l0 -317 190 1 c105 1 153
4 108 6 -51 2 -85 8 -92 16 -13 15 -21 476 -8 476 4 0 7 5 7 11 0 5 -4 7 -10
4 -5 -3 -10 2 -11 12 0 10 -1 37 -3 60 -1 23 1 41 4 41 17 -1 18 5 4 37 -17
41 -17 48 -4 40 15 -10 12 31 -4 44 -11 9 -12 18 -2 42 9 25 8 33 -4 42 -8 7
-15 21 -14 32 0 11 -2 25 -5 30 -10 18 -10 35 0 29 5 -3 4 7 -1 21 -6 15 -8
31 -4 36 3 5 1 9 -5 9 -5 0 -8 9 -6 20 10 54 -41 126 -76 105 -7 -5 -10 -4 -6
2 8 13 -41 36 -55 27 -6 -4 -8 -2 -5 3 8 13 -50 36 -66 26 -6 -3 -7 -1 -3 5 6
11 -12 17 -36 13 -5 0 -8 3 -8 8 0 5 -8 11 -17 14 -10 3 -40 13 -67 21 -44 14
-47 14 -42 -1 5 -13 4 -14 -9 -3 -8 7 -13 16 -10 20 2 4 -7 12 -20 18 -14 7
-25 7 -25 3 0 -5 8 -11 18 -13 14 -3 13 -5 -6 -10 -12 -3 -20 -2 -17 2 8 13
-26 42 -41 36 -8 -3 -14 -2 -14 3 0 5 -28 16 -62 26 -34 9 -69 20 -77 23 -10
4 -12 1 -6 -8 5 -9 0 -7 -16 3 -26 18 -39 21 -39 9z m81 -139 c13 -16 12 -17
-3 -4 -10 7 -18 15 -18 17 0 8 8 3 21 -13z m404 -113 c13 -6 15 -9 5 -9 -8 0
-22 4 -30 9 -18 12 -2 12 25 0z"/>
<path d="M6577 5659 c7 -7 15 -10 18 -7 3 3 -2 9 -12 12 -14 6 -15 5 -6 -5z"/>
<path d="M6770 5590 c8 -5 20 -10 25 -10 6 0 3 5 -5 10 -8 5 -19 10 -25 10 -5
0 -3 -5 5 -10z"/>
<path d="M6895 5540 c3 -5 11 -10 16 -10 6 0 7 5 4 10 -3 6 -11 10 -16 10 -6
0 -7 -4 -4 -10z"/>
<path d="M6967 5509 c7 -7 15 -10 18 -7 3 3 -2 9 -12 12 -14 6 -15 5 -6 -5z"/>
<path d="M6415 5312 c6 -5 80 -33 165 -61 85 -29 161 -55 168 -60 24 -15 36
-190 37 -523 0 -181 3 -328 6 -328 11 0 22 366 15 480 -3 58 -11 169 -18 247
-11 139 -11 142 -37 152 -14 6 -82 28 -150 50 -135 44 -202 60 -186 43z"/>
<path d="M3611 4994 c0 -11 3 -14 6 -6 3 7 2 16 -1 19 -3 4 -6 -2 -5 -13z"/>
<path d="M3613 4925 c0 -27 2 -38 4 -22 2 15 2 37 0 50 -2 12 -4 0 -4 -28z"/>
<path d="M6369 4878 c0 -24 -3 -65 -5 -93 -7 -70 1 -95 30 -95 13 0 29 7 36
15 11 13 8 15 -14 15 l-26 0 0 100 c0 60 -4 100 -10 100 -5 0 -10 -19 -11 -42z"/>
<path d="M6450 4878 c0 -12 7 -18 24 -18 36 0 41 27 5 32 -23 4 -29 1 -29 -14z"/>
<path d="M6539 4895 c-19 -28 -13 -169 7 -189 21 -21 86 -20 114 2 21 17 21
17 -23 14 -76 -6 -86 5 -89 101 -2 45 -6 78 -9 72z"/>
<path d="M6617 4893 c-4 -3 -7 -17 -7 -30 0 -19 5 -23 29 -23 17 0 33 5 36 10
3 6 0 10 -8 10 -8 0 -17 9 -20 20 -5 20 -18 26 -30 13z"/>
<path d="M6450 4780 c0 -17 3 -19 19 -10 32 16 34 30 7 30 -19 0 -26 -5 -26
-20z"/>
<path d="M6387 4611 c-4 -18 -4 -37 -1 -42 15 -25 104 6 104 37 0 21 -27 17
-33 -5 -8 -30 -55 -16 -59 18 -3 24 -4 24 -11 -8z"/>
<path d="M6547 4633 c-9 -14 -10 -67 -3 -118 13 -93 14 -94 52 -101 30 -5 40
-3 57 16 20 21 20 22 3 16 -10 -4 -34 -2 -53 5 -27 9 -33 16 -33 39 0 33 29
49 46 26 17 -24 34 -19 34 9 0 24 -2 25 -40 19 -35 -6 -40 -4 -41 12 -1 27
-10 78 -14 82 -1 2 -5 0 -8 -5z"/>
<path d="M6620 4610 c0 -5 13 -10 29 -10 17 0 33 5 36 10 4 6 -8 10 -29 10
-20 0 -36 -4 -36 -10z"/>
<path d="M3613 4485 c0 -38 2 -53 4 -32 2 20 2 52 0 70 -2 17 -4 1 -4 -38z"/>
<path d="M6386 4485 c-13 -35 -6 -63 17 -69 36 -10 105 -7 112 5 11 16 -2 22
-53 25 -64 3 -64 3 -57 14 3 5 2 17 -3 26 -8 15 -10 15 -16 -1z"/>
<path d="M6051 4364 c0 -11 3 -14 6 -6 3 7 2 16 -1 19 -3 4 -6 -2 -5 -13z"/>
</g>
</svg>
